<?xml version="1.0" encoding="UTF-8" standalone="no"?>
<!DOCTYPE svg PUBLIC "-//W3C//DTD SVG 1.1//EN"
 "http://www.w3.org/Graphics/SVG/1.1/DTD/svg11.dtd">
<!-- Generated by graphviz version 2.36.0 (20140111.2315)
 -->
<!-- Title: finite_state Pages: 1 -->
<svg width="131pt" height="242pt"
 viewBox="0.00 0.00 131.00 242.00" xmlns="http://www.w3.org/2000/svg" xmlns:xlink="http://www.w3.org/1999/xlink">
<g id="graph0" class="graph" transform="scale(1 1) rotate(0) translate(4 238)">
<title>finite_state</title>
<polygon fill="white" stroke="none" points="-4,4 -4,-238 127,-238 127,4 -4,4"/>
<!-- file1 -->
<g id="node1" class="node"><title>file1</title>
<ellipse fill="none" stroke="black" cx="61" cy="-207" rx="26.4705" ry="26.7961"/>
<text text-anchor="middle" x="61" y="-203.3" font-family="Times,serif" font-size="14.00">file1</text>
</g>
<!-- file2 -->
<g id="node2" class="node"><title>file2</title>
<ellipse fill="none" stroke="black" cx="26" cy="-117" rx="26.4705" ry="26.7961"/>
<text text-anchor="middle" x="26" y="-113.3" font-family="Times,serif" font-size="14.00">file2</text>
</g>
<!-- file1&#45;&gt;file2 -->
<g id="edge1" class="edge"><title>file1&#45;&gt;file2</title>
<path fill="none" stroke="black" d="M51.4361,-181.954C47.6936,-172.544 43.3368,-161.59 39.2974,-151.433"/>
<polygon fill="black" stroke="black" points="42.5003,-150.016 35.5523,-142.017 35.9959,-152.603 42.5003,-150.016"/>
</g>
<!-- file3 -->
<g id="node3" class="node"><title>file3</title>
<ellipse fill="none" stroke="black" cx="97" cy="-117" rx="26.4705" ry="26.7961"/>
<text text-anchor="middle" x="97" y="-113.3" font-family="Times,serif" font-size="14.00">file3</text>
</g>
<!-- file1&#45;&gt;file3 -->
<g id="edge2" class="edge"><title>file1&#45;&gt;file3</title>
<path fill="none" stroke="black" d="M70.8372,-181.954C74.6866,-172.544 79.1679,-161.59 83.3227,-151.433"/>
<polygon fill="black" stroke="black" points="86.6278,-152.598 87.1747,-142.017 80.1489,-149.948 86.6278,-152.598"/>
</g>
<!-- file4 -->
<g id="node4" class="node"><title>file4</title>
<ellipse fill="none" stroke="black" cx="26" cy="-27" rx="26.4705" ry="26.7961"/>
<text text-anchor="middle" x="26" y="-23.3" font-family="Times,serif" font-size="14.00">file4</text>
</g>
<!-- file2&#45;&gt;file4 -->
<g id="edge3" class="edge"><title>file2&#45;&gt;file4</title>
<path fill="none" stroke="black" d="M26,-90.0731C26,-81.8377 26,-72.5799 26,-63.7774"/>
<polygon fill="black" stroke="black" points="29.5001,-63.7416 26,-53.7416 22.5001,-63.7417 29.5001,-63.7416"/>
</g>
</g>
</svg>
