<?xml version="1.0" encoding="UTF-8" standalone="no"?>
<!DOCTYPE svg PUBLIC "-//W3C//DTD SVG 1.1//EN"
 "http://www.w3.org/Graphics/SVG/1.1/DTD/svg11.dtd">
<!-- Generated by graphviz version 2.36.0 (20140111.2315)
 -->
<!-- Title: example Pages: 1 -->
<svg width="139pt" height="254pt"
 viewBox="0.00 0.00 139.00 254.00" xmlns="http://www.w3.org/2000/svg" xmlns:xlink="http://www.w3.org/1999/xlink">
<g id="graph0" class="graph" transform="scale(1 1) rotate(0) translate(4 250)">
<title>example</title>
<polygon fill="white" stroke="none" points="-4,4 -4,-250 135,-250 135,4 -4,4"/>
<!-- 1 -->
<g id="node1" class="node"><title>1</title>
<g id="a_node1"><a xlink:href="md_markdown_file1.html" target="_top" xlink:title="class 1">
<ellipse fill="none" stroke="black" cx="65" cy="-217" rx="27.8869" ry="28.0137"/>
<text text-anchor="middle" x="65" y="-214.5" font-family="Helvetica,sans-Serif" font-size="10.00">class 1</text>
</a>
</g>
</g>
<!-- 2 -->
<g id="node2" class="node"><title>2</title>
<g id="a_node2"><a xlink:href="md_markdown_file2.html" target="_top" xlink:title="class 2">
<ellipse fill="none" stroke="black" cx="28" cy="-123" rx="27.8869" ry="28.0137"/>
<text text-anchor="middle" x="28" y="-120.5" font-family="Helvetica,sans-Serif" font-size="10.00">class 2</text>
</a>
</g>
</g>
<!-- 1&#45;&gt;2 -->
<g id="edge1" class="edge"><title>1&#45;&gt;2</title>
<path fill="none" stroke="black" d="M54.6934,-190.373C50.7643,-180.603 46.2173,-169.297 42.002,-158.816"/>
<polygon fill="black" stroke="black" points="45.2299,-157.462 38.2513,-149.49 38.7354,-160.073 45.2299,-157.462"/>
</g>
<!-- 3 -->
<g id="node3" class="node"><title>3</title>
<g id="a_node3"><a xlink:href="md_markdown_file3.html" target="_top" xlink:title="class 3">
<ellipse fill="none" stroke="black" cx="103" cy="-123" rx="27.8869" ry="28.0137"/>
<text text-anchor="middle" x="103" y="-120.5" font-family="Helvetica,sans-Serif" font-size="10.00">class 3</text>
</a>
</g>
</g>
<!-- 1&#45;&gt;3 -->
<g id="edge2" class="edge"><title>1&#45;&gt;3</title>
<path fill="none" stroke="black" d="M75.5851,-190.373C79.6204,-180.603 84.2903,-169.297 88.6195,-158.816"/>
<polygon fill="black" stroke="black" points="91.8889,-160.068 92.4716,-149.49 85.4191,-157.396 91.8889,-160.068"/>
</g>
<!-- 4 -->
<g id="node4" class="node"><title>4</title>
<g id="a_node4"><a xlink:href="md_markdown_file4.html" target="_top" xlink:title="class 4">
<ellipse fill="none" stroke="black" cx="28" cy="-29" rx="27.8869" ry="28.0137"/>
<text text-anchor="middle" x="28" y="-26.5" font-family="Helvetica,sans-Serif" font-size="10.00">class 4</text>
</a>
</g>
</g>
<!-- 2&#45;&gt;4 -->
<g id="edge3" class="edge"><title>2&#45;&gt;4</title>
<path fill="none" stroke="black" d="M28,-94.397C28,-85.9516 28,-76.5158 28,-67.527"/>
<polygon fill="black" stroke="black" points="31.5001,-67.2665 28,-57.2665 24.5001,-67.2665 31.5001,-67.2665"/>
</g>
</g>
</svg>
